<svg xmlns="http://www.w3.org/2000/svg" version="1.1" viewBox="-5.0 -10.0 110.0 135.0">
 <path d="m85.938 81.25h-71.875c-4.3125 0-7.8125-3.5-7.8125-7.8125v-43.75c0-4.3125 3.5-7.8125 7.8125-7.8125 0.85938 0 1.5625 0.70312 1.5625 1.5625s-0.70312 1.5625-1.5625 1.5625c-2.5781 0-4.6875 2.1094-4.6875 4.6875v4.6875h75c0.85938 0 1.5625 0.70312 1.5625 1.5625s-0.70312 1.5625-1.5625 1.5625h-75v35.938c0 2.5781 2.1094 4.6875 4.6875 4.6875h71.875c2.5781 0 4.6875-2.1094 4.6875-4.6875v-43.75c0-2.5781-2.1094-4.6875-4.6875-4.6875h-64.062c-0.85938 0-1.5625-0.70312-1.5625-1.5625s0.70312-1.5625 1.5625-1.5625h64.062c4.3125 0 7.8125 3.5 7.8125 7.8125v43.75c0 4.3125-3.5 7.8125-7.8125 7.8125zm-35.938-6.25c-9.4844 0-17.188-7.7188-17.188-17.188s7.7031-17.188 17.188-17.188 17.188 7.7188 17.188 17.188-7.7031 17.188-17.188 17.188zm-3.6562-9.9375c0.70312 2.2344 1.8438 4.4219 3.6562 6.2656 1.8125-1.8438 2.9531-4.0312 3.6562-6.2656zm10.562 0c-0.625 2.3281-1.5781 4.4062-2.8281 6.2188 3.3594-1.0156 6.1875-3.2656 7.9688-6.2188zm-18.969 0c1.7812 2.9531 4.6094 5.1875 7.9688 6.2188-1.2656-1.8125-2.2031-3.8906-2.8281-6.2188zm19.594-3.125h5.9062c0.40625-1.2969 0.60938-2.6875 0.60938-4.125s-0.21875-2.8125-0.60938-4.125h-5.9062c0.1875 1.3125 0.26562 2.6875 0.26562 4.125s-0.09375 2.8125-0.26562 4.125zm-11.922 0h8.7656c0.23438-1.4531 0.3125-2.8594 0.3125-4.125s-0.078125-2.6719-0.3125-4.125h-8.7656c-0.23438 1.4531-0.3125 2.8594-0.3125 4.125s0.078125 2.6719 0.3125 4.125zm-9.0625 0h5.9062c-0.1875-1.3125-0.26562-2.6875-0.26562-4.125s0.09375-2.8125 0.26562-4.125h-5.9062c-0.40625 1.2969-0.60938 2.6875-0.60938 4.125s0.21875 2.8125 0.60938 4.125zm20.359-11.359h5.1406c-1.7812-2.9531-4.6094-5.1875-7.9688-6.2188 1.2656 1.8125 2.2031 3.8906 2.8281 6.2188zm-10.562 0h7.3125c-0.70312-2.2344-1.8438-4.4219-3.6562-6.2656-1.8125 1.8438-2.9531 4.0312-3.6562 6.2656zm-8.3906 0h5.1406c0.625-2.3281 1.5781-4.4062 2.8281-6.2188-3.3594 1.0156-6.1875 3.2656-7.9688 6.2188zm46.422-19.312h-14.062c-0.85938 0-1.5625-0.70312-1.5625-1.5625s0.70312-1.5625 1.5625-1.5625h14.062c0.85938 0 1.5625 0.70312 1.5625 1.5625s-0.70312 1.5625-1.5625 1.5625zm-60.906 0c-0.85938 0-1.5625-0.70312-1.5625-1.5625s0.6875-1.5625 1.5625-1.5625c0.85938 0 1.5625 0.70312 1.5625 1.5625s-0.70312 1.5625-1.5625 1.5625zm-4.6875 0c-0.85938 0-1.5625-0.70312-1.5625-1.5625s0.6875-1.5625 1.5625-1.5625c0.85938 0 1.5625 0.70312 1.5625 1.5625s-0.70312 1.5625-1.5625 1.5625zm-4.6875 0c-0.85938 0-1.5625-0.70312-1.5625-1.5625s0.6875-1.5625 1.5625-1.5625c0.85938 0 1.5625 0.70312 1.5625 1.5625s-0.70312 1.5625-1.5625 1.5625z"/>
<text x="0.0" y="117.5" font-size="5.0" font-weight="bold" font-family="Arbeit Regular, Helvetica, Arial-Unicode, Arial, Sans-serif" fill="#000000">Created by Aswell Studio</text><text x="0.0" y="122.5" font-size="5.0" font-weight="bold" font-family="Arbeit Regular, Helvetica, Arial-Unicode, Arial, Sans-serif" fill="#000000">from Noun Project</text></svg>