<svg xmlns="http://www.w3.org/2000/svg" version="1.1" viewBox="-5.0 -10.0 110.0 135.0">
 <g>
  <path d="m84.375 14.062h-68.75c-5.168 0-9.375 4.207-9.375 9.375v53.125c0 5.168 4.207 9.375 9.375 9.375h68.75c3.0664 0 5.7656-1.5 7.4766-3.7812 0.003907-0.007812 0.007813-0.011719 0.011719-0.015625 1.1719-1.5625 1.8867-3.4805 1.8867-5.5781v-53.125c0-5.168-4.207-9.375-9.375-9.375zm-68.75 6.25h68.75c1.7227 0 3.125 1.4023 3.125 3.125v49.461l-23.754-32.672c-0.57812-0.79297-1.4922-1.2695-2.4727-1.2891-0.94141-0.007812-1.9141 0.42969-2.5156 1.1992l-17.457 22.352-8.2422-10.906c-0.59375-0.78125-1.5156-1.2422-2.4922-1.2422h-0.027344c-0.98828 0.007812-1.9141 0.48828-2.4961 1.2852l-15.543 21.352v-49.539c0-1.7227 1.4023-3.125 3.125-3.125zm14.984 38.402 12.555 16.609c1.0391 1.375 3 1.6484 4.3789 0.60938 1.375-1.0391 1.6484-3 0.60938-4.3789l-2.9492-3.9023 15.93-20.395 23.539 32.375c-0.10547 0.003907-0.19141 0.054688-0.29688 0.054688h-68.75c-0.085938 0-0.16016-0.042969-0.24219-0.050781z"/>
  <path d="m29.688 47.824c6.0312 0 10.938-4.9062 10.938-10.938s-4.9062-10.938-10.938-10.938-10.938 4.9062-10.938 10.938 4.9062 10.938 10.938 10.938zm0-15.625c2.5859 0 4.6875 2.1016 4.6875 4.6875 0 2.5859-2.1016 4.6875-4.6875 4.6875s-4.6875-2.1016-4.6875-4.6875c0-2.5859 2.1016-4.6875 4.6875-4.6875z"/>
 </g>
<text x="0.0" y="117.5" font-size="5.0" font-weight="bold" font-family="Arbeit Regular, Helvetica, Arial-Unicode, Arial, Sans-serif" fill="#000000">Created by Riyan Resdian</text><text x="0.0" y="122.5" font-size="5.0" font-weight="bold" font-family="Arbeit Regular, Helvetica, Arial-Unicode, Arial, Sans-serif" fill="#000000">from Noun Project</text></svg>